<svg width="1024" height="1024" viewBox="0 0 1024 1024" fill="none" xmlns="http://www.w3.org/2000/svg">
<g clip-path="url(#clip0_602_50)">
<rect x="442.182" y="314.091" width="573.091" height="298.182" fill="white"/>
<rect x="1.45459" y="314.091" width="391.273" height="298.182" fill="white"/>
<rect x="442.182" y="654.455" width="573.091" height="299.636" fill="white"/>
<rect x="1.45459" y="654.455" width="391.273" height="299.636" fill="white"/>
<path d="M139.149 221.647C139.149 224.896 139.056 227.619 138.87 229.816C138.73 231.677 138.481 233.528 138.126 235.36C137.89 236.616 137.514 237.842 137.006 239.015C136.25 240.362 135.271 241.569 134.111 242.585C131.765 244.622 129.198 246.385 126.458 247.842C122.523 250.056 118.4 251.911 114.136 253.385C109.236 255.092 104.212 256.412 99.1079 257.333C93.5944 258.344 88.0008 258.848 82.3964 258.838C70.7592 259.051 59.1899 257.01 48.3194 252.825C38.7032 249.024 30.1457 242.935 23.3792 235.079C16.3688 226.714 11.1847 216.959 8.16327 206.448C4.5617 193.873 2.8314 180.831 3.02871 167.746C2.72461 153.002 4.83784 138.309 9.28343 124.256C12.8933 113.01 18.8443 102.668 26.7397 93.9186C34.0858 85.9846 43.1621 79.8746 53.2541 76.0695C64.0129 72.0896 75.4027 70.1161 86.8649 70.2456C91.7806 70.2401 96.6868 70.6804 101.524 71.5615C106.094 72.3794 110.59 73.5733 114.966 75.1313C118.836 76.4991 122.584 78.1967 126.167 80.2058C128.693 81.5311 131.044 83.1683 133.167 85.0793C134.262 86.1226 135.233 87.2899 136.061 88.5578C136.694 89.6954 137.136 90.9304 137.369 92.2129C137.724 94.0445 137.973 95.8956 138.114 97.7565C138.299 99.9496 138.392 102.612 138.392 105.743C138.684 110.917 138.053 116.102 136.527 121.052C135.284 123.996 133.669 125.468 131.683 125.468C129.221 125.339 126.864 124.416 124.962 122.837C122.597 121.082 119.795 119.141 116.558 117.013C112.909 114.675 109.03 112.723 104.981 111.189C99.836 109.322 94.3917 108.43 88.9236 108.557C83.4365 108.297 77.9754 109.465 73.0685 111.95C68.1616 114.434 63.975 118.15 60.9136 122.739C54.455 132.194 51.2257 146.065 51.2257 164.353C51.1193 172.372 51.932 180.377 53.6477 188.209C54.9497 194.375 57.3808 200.244 60.8167 205.516C63.8127 209.995 67.9374 213.594 72.7691 215.945C78.007 218.359 83.7205 219.548 89.4806 219.423C95.1868 219.561 100.864 218.572 106.192 216.511C110.477 214.774 114.575 212.602 118.423 210.03C121.907 207.65 124.831 205.489 127.197 203.548C128.818 201.946 130.918 200.923 133.173 200.636C134.189 200.6 135.184 200.933 135.976 201.574C136.901 202.528 137.519 203.74 137.75 205.053C138.258 207.183 138.602 209.35 138.78 211.534C139.026 214.142 139.149 217.512 139.149 221.647ZM309.516 200.983C309.694 209.674 307.872 218.289 304.194 226.155C300.703 233.349 295.55 239.597 289.165 244.376C282.266 249.456 274.474 253.177 266.199 255.341C256.82 257.85 247.149 259.08 237.444 258.996C231.472 259.017 225.508 258.546 219.613 257.589C214.462 256.77 209.376 255.577 204.397 254.019C200.557 252.833 196.813 251.357 193.195 249.602C190.83 248.51 188.631 247.087 186.662 245.375C185.067 243.634 183.97 241.491 183.489 239.173C182.614 235.069 182.238 230.874 182.369 226.679C182.337 223.762 182.462 220.846 182.744 217.943C182.906 216.151 183.282 214.386 183.864 212.686C184.175 211.623 184.832 210.696 185.729 210.054C186.589 209.587 187.557 209.36 188.533 209.396C190.706 209.687 192.781 210.491 194.588 211.741C197.264 213.305 200.594 215.027 204.578 216.907C209.092 218.986 213.746 220.742 218.505 222.165C224.358 223.869 230.431 224.691 236.524 224.601C240.331 224.652 244.128 224.21 247.822 223.285C250.873 222.519 253.776 221.249 256.414 219.527C258.764 217.987 260.666 215.847 261.924 213.325C263.211 210.631 263.849 207.67 263.789 204.681C263.865 201.137 262.633 197.691 260.332 195.007C257.751 192.1 254.647 189.71 251.183 187.965C247.018 185.8 242.713 183.917 238.298 182.33C233.507 180.575 228.59 178.634 223.548 176.506C218.489 174.373 213.563 171.932 208.799 169.196C204.035 166.464 199.695 163.047 195.914 159.053C191.985 154.854 188.873 149.95 186.741 144.597C184.288 138.123 183.113 131.231 183.283 124.305C183.197 116.689 184.792 109.149 187.951 102.228C191.058 95.5333 195.658 89.6502 201.393 85.0367C207.756 80.0105 215.012 76.2497 222.773 73.9556C231.951 71.214 241.488 69.8832 251.062 70.008C256.155 69.998 261.241 70.3748 266.278 71.135C270.771 71.8006 275.22 72.7426 279.599 73.9556C283.055 74.8871 286.427 76.1098 289.68 77.6107C291.749 78.5335 293.719 79.6664 295.559 80.9917C296.581 81.7494 297.438 82.7092 298.078 83.8122C298.618 84.8763 298.995 86.0161 299.198 87.1932C299.448 88.509 299.666 90.1335 299.852 92.0667C300.038 93.9998 300.131 96.4102 300.131 99.2977C300.131 102.681 300.038 105.436 299.852 107.564C299.744 109.287 299.431 110.991 298.92 112.639C298.645 113.668 298.016 114.566 297.146 115.173C296.348 115.625 295.445 115.852 294.53 115.831C292.664 115.571 290.88 114.896 289.305 113.857C286.423 112.294 283.462 110.883 280.434 109.63C276.418 107.965 272.303 106.553 268.112 105.402C262.904 104.018 257.532 103.354 252.146 103.428C248.432 103.364 244.727 103.807 241.132 104.744C238.352 105.456 235.747 106.736 233.478 108.503C231.562 110.037 230.028 112 228.998 114.235C227.997 116.445 227.487 118.848 227.502 121.277C227.401 124.863 228.671 128.352 231.05 131.024C233.731 133.917 236.911 136.296 240.435 138.048C244.692 140.223 249.09 142.105 253.599 143.683C258.515 145.438 263.494 147.348 268.536 149.416C273.656 151.52 278.645 153.934 283.474 156.647C288.333 159.358 292.769 162.775 296.637 166.79C300.599 170.957 303.762 175.825 305.968 181.148C308.47 187.451 309.676 194.198 309.516 200.983V200.983ZM511.998 80.5592C511.998 81.1846 511.967 81.9359 511.907 82.8131C511.831 83.7896 511.706 84.7615 511.532 85.7251C511.346 86.7891 511.098 88.0075 510.787 89.3802C510.476 90.7529 510.072 92.3185 509.576 94.077L459.526 245.722C459.032 247.593 458.176 249.349 457.007 250.888C455.606 252.415 453.788 253.493 451.782 253.988C448.549 254.86 445.227 255.357 441.882 255.469C437.712 255.721 432.263 255.846 425.534 255.846C418.938 255.846 413.553 255.69 409.379 255.377C406.063 255.21 402.776 254.675 399.576 253.781C397.601 253.272 395.817 252.195 394.442 250.681C393.298 249.196 392.443 247.508 391.923 245.704L341.891 94.0892C341.145 91.5834 340.553 89.3294 340.117 87.3272C339.779 85.9047 339.53 84.4621 339.372 83.0081C339.312 82.1309 339.282 81.3186 339.282 80.5713C339.259 79.3912 339.62 78.2359 340.311 77.2817C341.268 76.1598 342.531 75.3445 343.944 74.9364C346.276 74.1973 348.69 73.7553 351.131 73.6205C354.183 73.3687 358.018 73.2428 362.635 73.2428C367.738 73.2428 371.845 73.3992 374.957 73.7119C377.452 73.9115 379.921 74.3521 382.332 75.0277C383.839 75.3948 385.184 76.2512 386.159 77.4645C386.964 78.6494 387.592 79.9465 388.024 81.3145L425.927 204.37L427.047 209.067L428.168 204.37L465.514 81.3145C465.837 79.9223 466.441 78.6118 467.288 77.4645C468.287 76.278 469.622 75.4276 471.115 75.0277C473.4 74.3589 475.744 73.9182 478.114 73.7119C481.939 73.3591 485.779 73.2026 489.619 73.2428C494.225 73.2428 497.991 73.3687 500.917 73.6205C503.238 73.7489 505.532 74.1915 507.735 74.9364C509.067 75.3552 510.239 76.1735 511.096 77.2817C511.716 78.2586 512.03 79.4004 511.998 80.5592Z" fill="white"/>
</g>
<defs>
<clipPath id="clip0_602_50">
<rect width="1024" height="1024" fill="white"/>
</clipPath>
</defs>
</svg>
